<?xml version="1.0" encoding="UTF-8"?>
<svg width="1000px" height="250px" viewBox="0 0 1000 250" version="1.1" xmlns="http://www.w3.org/2000/svg" xmlns:xlink="http://www.w3.org/1999/xlink">
    <title>Bose Logo</title>
    <g stroke="none" stroke-width="1" fill="none" fill-rule="evenodd">
        <path d="M108.75,125 C108.75,138.8 97.8,150 84.375,150 L48.75,150 L48.75,100 L84.375,100 C97.8,100 108.75,111.2 108.75,125 Z M181.25,125 C181.25,138.8 170.3,150 156.875,150 L121.25,150 L121.25,100 L156.875,100 C170.3,100 181.25,111.2 181.25,125 Z M253.75,125 C253.75,138.8 242.8,150 229.375,150 L193.75,150 L193.75,100 L229.375,100 C242.8,100 253.75,111.2 253.75,125 Z M326.25,125 C326.25,138.8 315.3,150 301.875,150 L266.25,150 L266.25,100 L301.875,100 C315.3,100 326.25,111.2 326.25,125 Z M398.75,125 C398.75,138.8 387.8,150 374.375,150 L338.75,150 L338.75,100 L374.375,100 C387.8,100 398.75,111.2 398.75,125 Z M471.25,125 C471.25,138.8 460.3,150 446.875,150 L411.25,150 L411.25,100 L446.875,100 C460.3,100 471.25,111.2 471.25,125 Z M543.75,125 C543.75,138.8 532.8,150 519.375,150 L483.75,150 L483.75,100 L519.375,100 C532.8,100 543.75,111.2 543.75,125 Z M616.25,125 C616.25,138.8 605.3,150 591.875,150 L556.25,150 L556.25,100 L591.875,100 C605.3,100 616.25,111.2 616.25,125 Z M688.75,125 C688.75,138.8 677.8,150 664.375,150 L628.75,150 L628.75,100 L664.375,100 C677.8,100 688.75,111.2 688.75,125 Z M761.25,125 C761.25,138.8 750.3,150 736.875,150 L701.25,150 L701.25,100 L736.875,100 C750.3,100 761.25,111.2 761.25,125 Z M833.75,125 C833.75,138.8 822.8,150 809.375,150 L773.75,150 L773.75,100 L809.375,100 C822.8,100 833.75,111.2 833.75,125 Z M906.25,125 C906.25,138.8 895.3,150 881.875,150 L846.25,150 L846.25,100 L881.875,100 C895.3,100 906.25,111.2 906.25,125 Z M978.75,125 C978.75,138.8 967.8,150 954.375,150 L918.75,150 L918.75,100 L954.375,100 C967.8,100 978.75,111.2 978.75,125 Z M36.25,125 C36.25,138.8 25.3,150 11.875,150 L-23.75,150 L-23.75,100 L11.875,100 C25.3,100 36.25,111.2 36.25,125 Z" fill="#000000" fill-rule="nonzero"></path>
    </g>
</svg> 