<?xml version="1.0" encoding="UTF-8"?>
<svg width="200px" height="200px" viewBox="0 0 200 200" version="1.1" xmlns="http://www.w3.org/2000/svg" xmlns:xlink="http://www.w3.org/1999/xlink">
    <title>Master &amp; Dynamic Logo</title>
    <g stroke="none" stroke-width="1" fill="none" fill-rule="evenodd">
        <path d="M100,30 C139.765,30 172,62.2355 172,102 C172,141.765 139.765,174 100,174 C60.2355,174 28,141.765 28,102 C28,62.2355 60.2355,30 100,30 Z M100,40 C65.7585,40 38,67.7585 38,102 C38,136.241 65.7585,164 100,164 C134.241,164 162,136.241 162,102 C162,67.7585 134.241,40 100,40 Z M78.6,129.4 L78.6,74.6 L89.8,74.6 L89.8,120.4 L116.8,120.4 L116.8,129.4 L78.6,129.4 Z M131.4,129.4 L121.4,129.4 L121.4,74.6 L131.4,74.6 L131.4,129.4 Z" fill="#000000" fill-rule="nonzero"></path>
    </g>
</svg> 